<svg width="21" height="21" viewBox="0 0 21 21" fill="none" xmlns="http://www.w3.org/2000/svg">
<g clip-path="url(#clip0)">
<path d="M6.51763 13.8936H17.158C17.4215 13.8936 17.6526 13.7194 17.7239 13.4663L20.0799 5.22099C20.1305 5.04323 20.0958 4.85229 19.9843 4.70459C19.8727 4.55735 19.699 4.47039 19.5138 4.47039H5.158L4.737 2.57596C4.67718 2.30618 4.43793 2.11462 4.16186 2.11462H0.588942C0.26349 2.11462 0 2.37811 0 2.70357C0 3.02917 0.26349 3.29251 0.588942 3.29251H3.68917L5.81596 12.8628C5.19021 13.1349 4.7508 13.7577 4.7508 14.4826C4.7508 15.4568 5.54342 16.2494 6.51763 16.2494H17.158C17.4836 16.2494 17.747 15.9861 17.747 15.6605C17.747 15.335 17.4836 15.0715 17.158 15.0715H6.51763C6.19325 15.0715 5.92869 14.8076 5.92869 14.4826C5.92869 14.1576 6.19325 13.8936 6.51763 13.8936Z" fill="#4E4536"/>
<path d="M5.92859 18.0162C5.92859 18.9906 6.72121 19.783 7.69557 19.783C8.66978 19.783 9.4624 18.9906 9.4624 18.0162C9.4624 17.042 8.66978 16.2494 7.69557 16.2494C6.72121 16.2494 5.92859 17.042 5.92859 18.0162Z" fill="#4E4536"/>
<path d="M14.2133 18.0162C14.2133 18.9906 15.0059 19.783 15.9801 19.783C16.9544 19.783 17.7469 18.9906 17.7469 18.0162C17.7469 17.042 16.9544 16.2494 15.9801 16.2494C15.0059 16.2494 14.2133 17.042 14.2133 18.0162Z" fill="#4E4536"/>
</g>
<defs>
<clipPath id="clip0">
<rect width="20.1026" height="20.1026" fill="white" transform="translate(0 0.897461)"/>
</clipPath>
</defs>
</svg>