<svg width="29" height="14" viewBox="0 0 29 14" fill="none" xmlns="http://www.w3.org/2000/svg">
<path d="M1.31077 1.75002H27.5607C28.0438 1.75002 28.4357 1.35799 28.4357 0.875039C28.4357 0.392019 28.0437 6.10352e-05 27.5607 6.10352e-05H1.31077C0.827749 6.10352e-05 0.435791 0.392092 0.435791 0.875039C0.435791 1.35799 0.827822 1.75002 1.31077 1.75002Z" fill="#4E4536"/>
<path d="M27.5607 6.12506H1.31077C0.827749 6.12506 0.435791 6.51709 0.435791 7.00003C0.435791 7.48297 0.827822 7.875 1.31077 7.875H27.5607C28.0438 7.875 28.4357 7.48297 28.4357 7.00003C28.4357 6.51709 28.0438 6.12506 27.5607 6.12506Z" fill="#4E4536"/>
<path d="M27.5608 12.25H10.0608C9.57775 12.25 9.18579 12.642 9.18579 13.125C9.18579 13.608 9.57782 14 10.0608 14H27.5608C28.0438 14 28.4357 13.6079 28.4357 13.125C28.4358 12.642 28.0438 12.25 27.5608 12.25Z" fill="#4E4536"/>
</svg>
