<svg width="29" height="28" viewBox="0 0 29 28" fill="none" xmlns="http://www.w3.org/2000/svg">
<g clip-path="url(#clip0)">
<path d="M1.31077 8.75002H27.5607C28.0438 8.75002 28.4357 8.35799 28.4357 7.87504C28.4357 7.39202 28.0437 7.00006 27.5607 7.00006H1.31077C0.827749 7.00006 0.435791 7.39209 0.435791 7.87504C0.435791 8.35799 0.827822 8.75002 1.31077 8.75002Z" fill="#4E4536"/>
<path d="M27.5607 13.1251H1.31077C0.827749 13.1251 0.435791 13.5171 0.435791 14C0.435791 14.483 0.827822 14.875 1.31077 14.875H27.5607C28.0438 14.875 28.4357 14.483 28.4357 14C28.4357 13.5171 28.0438 13.1251 27.5607 13.1251Z" fill="#4E4536"/>
<path d="M27.5608 19.25H10.0608C9.57775 19.25 9.18579 19.642 9.18579 20.125C9.18579 20.608 9.57782 21 10.0608 21H27.5608C28.0438 21 28.4357 20.6079 28.4357 20.125C28.4358 19.642 28.0438 19.25 27.5608 19.25Z" fill="#4E4536"/>
</g>
<defs>
<clipPath id="clip0">
<rect width="28" height="28" fill="white" transform="translate(0.435791)"/>
</clipPath>
</defs>
</svg>
