<svg width="29" height="28" viewBox="0 0 29 28" fill="none" xmlns="http://www.w3.org/2000/svg">
<path d="M14.436 0C10.3652 0 7.05322 3.31193 7.05322 7.38281C7.05322 11.4537 10.3652 14.7656 14.436 14.7656C18.5069 14.7656 21.8188 11.4537 21.8188 7.38281C21.8188 3.31193 18.5069 0 14.436 0Z" fill="#4E4536"/>
<path d="M23.6216 19.5888C21.6003 17.5365 18.9208 16.4062 16.0765 16.4062H12.7953C9.9511 16.4062 7.27152 17.5365 5.25027 19.5888C3.23892 21.631 2.13123 24.3268 2.13123 27.1797C2.13123 27.6327 2.49851 28 2.95154 28H25.9203C26.3733 28 26.7406 27.6327 26.7406 27.1797C26.7406 24.3268 25.6329 21.631 23.6216 19.5888Z" fill="#4E4536"/>
</svg>
