<svg width="35" height="35" viewBox="0 0 35 35" fill="none" xmlns="http://www.w3.org/2000/svg">
<path d="M33.8818 31.8795L25.5518 23.2158C27.6936 20.6697 28.8671 17.4662 28.8671 14.1312C28.8671 6.3394 22.5277 0 14.7359 0C6.94401 0 0.604614 6.3394 0.604614 14.1312C0.604614 21.9231 6.94401 28.2625 14.7359 28.2625C17.661 28.2625 20.4486 27.3802 22.8318 25.7053L31.2252 34.4348C31.576 34.7991 32.0478 35 32.5535 35C33.0321 35 33.4862 34.8175 33.8308 34.4857C34.5632 33.781 34.5866 32.6124 33.8818 31.8795ZM14.7359 3.68641C20.4953 3.68641 25.1807 8.37184 25.1807 14.1312C25.1807 19.8906 20.4953 24.5761 14.7359 24.5761C8.97645 24.5761 4.29102 19.8906 4.29102 14.1312C4.29102 8.37184 8.97645 3.68641 14.7359 3.68641Z" fill="white"/>
</svg>
