<svg width="24" height="24" viewBox="0 0 24 24" fill="none" xmlns="http://www.w3.org/2000/svg">
<path d="M23.9372 9.2054C23.7792 8.71943 23.3482 8.37537 22.8402 8.32941L15.9121 7.70043L13.1741 1.29017C12.972 0.819219 12.512 0.515259 12 0.515259C11.4881 0.515259 11.0279 0.819219 10.827 1.29017L8.08902 7.70043L1.15982 8.32941C0.651881 8.37629 0.221759 8.72035 0.0628208 9.2054C-0.0952019 9.69137 0.0507355 10.2244 0.434897 10.5613L5.67198 15.1535L4.12783 21.9545C4.01485 22.4546 4.20895 22.9717 4.62387 23.2716C4.8469 23.4337 5.10893 23.5146 5.37187 23.5146C5.59783 23.5146 5.82396 23.4545 6.02593 23.3337L12 19.7616L17.973 23.3337C18.4112 23.5955 18.9622 23.5715 19.3762 23.2716C19.7911 22.9717 19.9852 22.4546 19.8722 21.9545L18.3281 15.1535L23.5652 10.5613C23.9491 10.2244 24.0953 9.69247 23.9372 9.2054Z" fill="#F1A11A"/>
</svg>