<svg width="24" height="24" viewBox="0 0 24 24" fill="none" xmlns="http://www.w3.org/2000/svg">
<path d="M11.999 19.1305L3.44239 10.574C2.65498 9.78654 1.37793 9.78654 0.590558 10.574C-0.196853 11.3614 -0.196853 12.6384 0.590558 13.4258L10.5741 23.4094C11.3615 24.1968 12.6385 24.1968 13.4259 23.4094L23.4095 13.4258C24.1968 12.6384 24.1968 11.3614 23.4095 10.574C22.622 9.78654 21.345 9.78654 20.5576 10.574L11.999 19.1305ZM11.988 7.08258L5.4789 0.597443C4.68051 -0.19895 3.38447 -0.19895 2.58604 0.597443C1.78765 1.39387 1.78765 2.68387 2.58604 3.4803L10.5421 11.4063C11.3405 12.2028 11.925 12.0749 12.7125 11.2874L21.3909 3.4803C22.1893 2.68387 22.1893 1.39387 21.3909 0.597443C20.5926 -0.19895 19.2965 -0.19895 18.4981 0.597443L11.988 7.08258Z" fill="#4E4536"/>
</svg>
