<svg width="24" height="24" viewBox="0 0 24 24" fill="none" xmlns="http://www.w3.org/2000/svg">
<path d="M22.7952 8.82738L22.795 8.82736L15.8669 8.19838L15.5696 8.17139L15.4523 7.89683L12.7147 1.48739C12.7146 1.48723 12.7145 1.48707 12.7145 1.4869C12.5908 1.19929 12.3112 1.01526 12 1.01526C11.6884 1.01526 11.4092 1.19966 11.287 1.48633L11.2868 1.48657L8.54883 7.89683L8.43155 8.1714L8.13422 8.19839L1.20577 8.82729C1.20562 8.82731 1.20547 8.82732 1.20532 8.82734C0.897027 8.85597 0.635343 9.0646 0.538135 9.36057C0.442079 9.65671 0.531172 9.98068 0.764545 10.1854C0.764557 10.1854 0.764569 10.1854 0.764581 10.1854L6.00163 14.7776L6.2255 14.9739L6.15957 15.2642L4.61554 22.0647C4.61551 22.0648 4.61549 22.0649 4.61546 22.065C4.54651 22.3708 4.66518 22.6845 4.91679 22.8664L4.91778 22.8671C5.05322 22.9655 5.21182 23.0146 5.37187 23.0146C5.50907 23.0146 5.64623 22.9782 5.7692 22.9046L5.76934 22.9045L11.7434 19.3325L12.0001 19.179L12.2567 19.3325L18.2295 22.9045C18.2296 22.9045 18.2296 22.9045 18.2297 22.9046C18.4963 23.0638 18.8309 23.0492 19.0829 22.8667L19.0833 22.8664C19.335 22.6844 19.4536 22.3706 19.3845 22.0647L17.8405 15.2642L17.7746 14.9739L17.9984 14.7776L23.2354 10.1855C23.4688 9.98065 23.5581 9.65743 23.4617 9.36002L22.7952 8.82738ZM22.7952 8.82738C23.1034 8.85526 23.3653 9.0638 23.4616 9.3597L22.7952 8.82738Z" stroke="#4E4536"/>
</svg>