<svg width="29" height="28" viewBox="0 0 29 28" fill="none" xmlns="http://www.w3.org/2000/svg">
<path d="M28.446 15.2933C28.1946 12.7646 27.0649 10.3807 25.2649 8.58066C23.7266 7.04244 21.8438 6.05395 19.8627 5.61442V4.22489C20.6719 4.02359 21.2733 3.29114 21.2733 2.42056C21.2733 1.39526 20.4392 0.561157 19.4139 0.561157H15.4764C14.4511 0.561157 13.6169 1.39526 13.6169 2.42056C13.6169 3.29109 14.2184 4.02353 15.0275 4.22489V5.6183C13.0525 6.05969 11.1759 7.04681 9.64198 8.58071C9.3063 8.91639 8.99677 9.26853 8.71343 9.6345C8.6997 9.63346 8.68597 9.63242 8.67197 9.63242H4.77482C4.47284 9.63242 4.22794 9.87726 4.22794 10.1793C4.22794 10.4814 4.47284 10.7262 4.77482 10.7262H7.96928C7.56831 11.3975 7.24499 12.1025 6.99889 12.8282H1.04688C0.744894 12.8282 0.5 13.073 0.5 13.3751C0.5 13.6771 0.744894 13.922 1.04688 13.922H6.68985C6.53224 14.6138 6.44178 15.3179 6.41843 16.024H4.00005C3.69807 16.024 3.45317 16.2689 3.45317 16.5709C3.45317 16.8729 3.69807 17.1178 4.00005 17.1178H6.43587C6.48203 17.8257 6.59584 18.5298 6.77735 19.2198H3.23442C2.93243 19.2198 2.68753 19.4647 2.68753 19.7667C2.68753 20.0688 2.93243 20.3136 3.23442 20.3136H7.12637C7.66286 21.7328 8.50129 23.063 9.64198 24.2037C11.4437 26.0055 13.8301 27.1354 16.3614 27.3855C16.7227 27.4212 17.0842 27.4388 17.4453 27.4388C19.5793 27.4388 21.6863 26.8212 23.474 25.657C23.7271 25.4922 23.7987 25.1534 23.6339 24.9003C23.4691 24.6472 23.1303 24.5756 22.8772 24.7405C18.9638 27.2888 13.7229 26.7378 10.4154 23.4303C6.53459 19.5495 6.53459 13.235 10.4154 9.35417C14.2961 5.47343 20.6106 5.47343 24.4915 9.35417C27.7946 12.6573 28.3486 17.8938 25.8087 21.8052C25.6442 22.0585 25.7162 22.3973 25.9695 22.5617C26.2229 22.7262 26.5615 22.6542 26.726 22.4009C28.083 20.311 28.6939 17.7868 28.446 15.2933ZM14.7107 2.42062C14.7107 1.99842 15.0542 1.65498 15.4764 1.65498H19.4139C19.8361 1.65498 20.1796 1.99842 20.1796 2.42062C20.1796 2.84281 19.8361 3.18625 19.4139 3.18625H19.3158H15.5744H15.4764C15.0542 3.18625 14.7107 2.84276 14.7107 2.42062ZM16.1213 5.43028V4.28002H18.7689V5.42831C17.8897 5.32375 17.0003 5.3244 16.1213 5.43028Z" fill="#4E4536"/>
</svg>